<?xml version="1.0" encoding="UTF-8"?>
<!DOCTYPE svg PUBLIC "-//W3C//DTD SVG 1.1//EN" "http://www.w3.org/Graphics/SVG/1.1/DTD/svg11.dtd">
<svg xmlns="http://www.w3.org/2000/svg" version="1.1" width="2158px" height="696px" style="shape-rendering:geometricPrecision; text-rendering:geometricPrecision; image-rendering:optimizeQuality; fill-rule:evenodd; clip-rule:evenodd" xmlns:xlink="http://www.w3.org/1999/xlink">
<g><path style="opacity:0.974" fill="#fdfdfe" d="M 289.5,50.5 C 309.22,68.8574 332.554,80.024 359.5,84C 385.256,88.7577 410.256,86.2577 434.5,76.5C 447.496,108.006 468.162,133.172 496.5,152C 506.525,158.013 516.858,163.513 527.5,168.5C 516.755,185.23 510.255,203.563 508,223.5C 504.531,251.915 505.198,280.248 510,308.5C 515.861,337.61 522.194,366.61 529,395.5C 533.61,421.362 534.61,447.362 532,473.5C 524.217,526.282 495.384,562.115 445.5,581C 435.679,584.607 425.679,587.607 415.5,590C 388.139,593.507 361.472,599.84 335.5,609C 317.102,615.932 301.935,627.099 290,642.5C 278.705,627.559 264.205,616.726 246.5,610C 238.047,606.405 229.381,603.405 220.5,601C 201.961,596.692 183.295,593.026 164.5,590C 77.8507,568.951 38.684,513.784 47,424.5C 47.7192,416.465 48.7192,408.465 50,400.5C 56.1754,371.465 62.5088,342.465 69,313.5C 76.0035,278.138 76.0035,242.805 69,207.5C 65.9254,193.434 60.4254,180.434 52.5,168.5C 81.9892,155.85 106.489,136.85 126,111.5C 133.558,100.38 140.058,88.7131 145.5,76.5C 177.139,88.9042 209.139,89.7375 241.5,79C 260.202,73.7455 276.202,64.2455 289.5,50.5 Z"/></g>
<g><path style="opacity:1" fill="#35408e" d="M 288.5,76.5 C 300.445,83.2369 312.778,89.4036 325.5,95C 357.693,106.188 390.359,108.021 423.5,100.5C 434.429,118.466 447.429,134.966 462.5,150C 474.168,159.999 486.668,168.833 500,176.5C 489.185,208.805 484.852,242.138 487,276.5C 488.807,293.909 491.141,311.242 494,328.5C 500.447,352.625 506.114,376.958 511,401.5C 515.971,429.926 515.638,458.26 510,486.5C 500.844,520.325 480.344,544.492 448.5,559C 424.133,569.173 398.8,575.506 372.5,578C 342.171,583.837 314.504,595.67 289.5,613.5C 267.149,596.651 242.149,585.484 214.5,580C 194.308,576.925 174.308,572.925 154.5,568C 94.0029,549.479 64.3363,508.479 65.5,445C 65.4911,429.746 66.6577,414.58 69,399.5C 73.1441,378.642 78.1441,357.976 84,337.5C 93.6804,293.405 95.0137,249.072 88,204.5C 85.6971,194.941 83.0304,185.607 80,176.5C 105.071,162.43 126.071,143.763 143,120.5C 147.417,114.002 151.584,107.335 155.5,100.5C 198.19,110.08 238.856,104.58 277.5,84C 281.58,81.9715 285.246,79.4715 288.5,76.5 Z"/></g>
<g><path style="opacity:0.97" fill="#fefffe" d="M 1313.5,131.5 C 1368.21,128.712 1396.05,154.712 1397,209.5C 1398.62,231.407 1395.95,252.74 1389,273.5C 1380.21,293.943 1364.71,305.776 1342.5,309C 1325.37,311.448 1308.37,310.781 1291.5,307C 1272.99,301.821 1260.16,290.321 1253,272.5C 1242.95,241.141 1241.95,209.474 1250,177.5C 1255.69,156.476 1268.86,142.643 1289.5,136C 1297.54,133.941 1305.54,132.441 1313.5,131.5 Z M 1311.5,167.5 C 1338.4,162.595 1352.9,173.595 1355,200.5C 1355.89,216.536 1355.55,232.536 1354,248.5C 1350.88,266.935 1339.88,275.935 1321,275.5C 1303.47,276.423 1292.81,268.423 1289,251.5C 1285.41,229.763 1285.75,208.096 1290,186.5C 1293.34,175.65 1300.51,169.317 1311.5,167.5 Z"/></g>
<g><path style="opacity:0.964" fill="#fefffe" d="M 705.5,134.5 C 716.838,134.333 728.172,134.5 739.5,135C 763,169.167 786.5,203.333 810,237.5C 809.423,203.514 809.423,169.514 810,135.5C 821.667,134.167 833.333,134.167 845,135.5C 845.667,192.5 845.667,249.5 845,306.5C 835.56,307.817 826.06,307.817 816.5,306.5C 791.139,270.972 765.972,235.305 741,199.5C 740.5,235.498 740.333,271.498 740.5,307.5C 728.833,307.5 717.167,307.5 705.5,307.5C 705.5,249.833 705.5,192.167 705.5,134.5 Z"/></g>
<g><path style="opacity:0.966" fill="#fefffe" d="M 922.5,134.5 C 938.078,134.176 953.578,134.509 969,135.5C 989.541,192.623 1009.37,249.957 1028.5,307.5C 1014.16,307.667 999.829,307.5 985.5,307C 982.012,296.38 978.678,285.713 975.5,275C 954.836,274.5 934.169,274.333 913.5,274.5C 910.344,285.456 907.344,296.456 904.5,307.5C 890.484,307.833 876.484,307.499 862.5,306.5C 882.312,249.063 902.312,191.73 922.5,134.5 Z M 944.5,165.5 C 952.07,190.228 959.07,215.228 965.5,240.5C 951.496,240.667 937.496,240.5 923.5,240C 931.209,215.373 938.209,190.539 944.5,165.5 Z"/></g>
<g><path style="opacity:0.965" fill="#fefffe" d="M 1018.5,134.5 C 1061.83,134.5 1105.17,134.5 1148.5,134.5C 1149.28,146.484 1149.61,158.484 1149.5,170.5C 1134.17,170.5 1118.83,170.5 1103.5,170.5C 1103.5,216.167 1103.5,261.833 1103.5,307.5C 1090.17,307.5 1076.83,307.5 1063.5,307.5C 1063.5,261.833 1063.5,216.167 1063.5,170.5C 1048.17,170.5 1032.83,170.5 1017.5,170.5C 1017.42,158.485 1017.76,146.485 1018.5,134.5 Z"/></g>
<g><path style="opacity:0.955" fill="#fefffe" d="M 1175.5,134.5 C 1188.83,134.5 1202.17,134.5 1215.5,134.5C 1215.5,192.167 1215.5,249.833 1215.5,307.5C 1201.92,307.823 1188.42,307.49 1175,306.5C 1174.17,249.096 1174.34,191.763 1175.5,134.5 Z"/></g>
<g><path style="opacity:0.97" fill="#fefffe" d="M 1424.5,134.5 C 1435.84,134.333 1447.17,134.5 1458.5,135C 1482.12,169.08 1505.62,203.246 1529,237.5C 1529.5,203.168 1529.67,168.835 1529.5,134.5C 1541.08,134.179 1552.58,134.512 1564,135.5C 1564.67,192.5 1564.67,249.5 1564,306.5C 1554.91,307.65 1545.74,307.817 1536.5,307C 1510.61,271.445 1485.11,235.611 1460,199.5C 1459.5,235.498 1459.33,271.498 1459.5,307.5C 1447.83,307.5 1436.17,307.5 1424.5,307.5C 1424.5,249.833 1424.5,192.167 1424.5,134.5 Z"/></g>
<g><path style="opacity:0.966" fill="#fefffe" d="M 1640.5,134.5 C 1656.08,134.176 1671.58,134.509 1687,135.5C 1707.54,192.623 1727.37,249.957 1746.5,307.5C 1732.16,307.667 1717.83,307.5 1703.5,307C 1700.01,296.38 1696.68,285.713 1693.5,275C 1672.84,274.5 1652.17,274.333 1631.5,274.5C 1628.34,285.456 1625.34,296.456 1622.5,307.5C 1608.48,307.833 1594.48,307.499 1580.5,306.5C 1600.31,249.063 1620.31,191.73 1640.5,134.5 Z M 1662.5,165.5 C 1670.07,190.228 1677.07,215.228 1683.5,240.5C 1669.5,240.667 1655.5,240.5 1641.5,240C 1649.21,215.373 1656.21,190.539 1662.5,165.5 Z"/></g>
<g><path style="opacity:0.966" fill="#fefffe" d="M 1764.5,134.5 C 1777.83,134.5 1791.17,134.5 1804.5,134.5C 1804.5,180.167 1804.5,225.833 1804.5,271.5C 1827.84,271.333 1851.17,271.5 1874.5,272C 1874.75,283.745 1874.75,295.578 1874.5,307.5C 1837.83,307.5 1801.17,307.5 1764.5,307.5C 1764.5,249.833 1764.5,192.167 1764.5,134.5 Z"/></g>
<g><path style="opacity:1" fill="#faf9f6" d="M 239.5,197.5 C 238.833,217.167 238.167,236.833 237.5,256.5C 236.29,256.068 235.29,255.401 234.5,254.5C 235.332,235.004 235.832,215.338 236,195.5C 241.833,191 247.667,186.5 253.5,182C 243.506,181.5 233.506,181.334 223.5,181.5C 222.167,181.5 220.833,181.5 219.5,181.5C 219.167,181.5 218.833,181.5 218.5,181.5C 208.828,181.334 199.161,181.5 189.5,182C 195.333,186.5 201.167,191 207,195.5C 207.5,209.163 207.667,222.829 207.5,236.5C 206.279,235.972 205.113,235.305 204,234.5C 203.667,222.167 203.333,209.833 203,197.5C 195.121,190.62 186.955,184.12 178.5,178C 207.167,177.333 235.833,177.333 264.5,178C 256.005,184.333 247.671,190.833 239.5,197.5 Z"/></g>
<g><path style="opacity:1" fill="#efedea" d="M 207.5,294.5 C 207.333,334.168 207.5,373.835 208,413.5C 212.358,453.189 234.524,474.689 274.5,478C 296.604,480.128 317.937,477.128 338.5,469C 359.408,457.05 370.575,438.884 372,414.5C 372.333,341.5 372.667,268.5 373,195.5C 378.833,191 384.667,186.5 390.5,182C 380.506,181.5 370.506,181.334 360.5,181.5C 359.167,181.5 357.833,181.5 356.5,181.5C 356.833,258.002 356.499,334.335 355.5,410.5C 355.5,334.167 355.5,257.833 355.5,181.5C 345.828,181.334 336.161,181.5 326.5,182C 332.333,186.5 338.167,191 344,195.5C 344.667,266.833 344.667,338.167 344,409.5C 341.32,432.181 328.82,446.015 306.5,451C 287.257,454.967 269.257,451.967 252.5,442C 242.927,433.69 237.427,423.19 236,410.5C 235.5,377.835 235.333,345.168 235.5,312.5C 236.482,313.141 237.482,313.807 238.5,314.5C 239.333,346.828 239.833,379.162 240,411.5C 243.59,432.756 256.09,444.923 277.5,448C 295.249,451.071 311.583,447.738 326.5,438C 334.586,430.661 339.086,421.494 340,410.5C 340.667,339.5 340.667,268.5 340,197.5C 332.121,190.62 323.955,184.12 315.5,178C 344.167,177.333 372.833,177.333 401.5,178C 393.045,184.12 384.879,190.62 377,197.5C 376.667,269.5 376.333,341.5 376,413.5C 371.77,453.063 349.937,475.563 310.5,481C 291.674,482.397 273.008,481.397 254.5,478C 223.516,468.247 206.683,447.08 204,414.5C 203.333,373.5 203.333,332.5 204,291.5C 205.518,292.163 206.685,293.163 207.5,294.5 Z"/></g>
<g><path style="opacity:1" fill="#fed31e" d="M 218.5,181.5 C 218.831,202.34 218.497,223.007 217.5,243.5C 214.129,241.154 210.796,238.821 207.5,236.5C 207.667,222.829 207.5,209.163 207,195.5C 201.167,191 195.333,186.5 189.5,182C 199.161,181.5 208.828,181.334 218.5,181.5 Z"/></g>
<g><path style="opacity:1" fill="#998955" d="M 218.5,181.5 C 218.833,181.5 219.167,181.5 219.5,181.5C 219.833,202.511 219.5,223.511 218.5,244.5C 217.893,244.376 217.56,244.043 217.5,243.5C 218.497,223.007 218.831,202.34 218.5,181.5 Z"/></g>
<g><path style="opacity:1" fill="#fbd120" d="M 223.5,181.5 C 233.506,181.334 243.506,181.5 253.5,182C 247.667,186.5 241.833,191 236,195.5C 235.832,215.338 235.332,235.004 234.5,254.5C 230.771,252.549 227.271,250.216 224,247.5C 223.5,225.503 223.333,203.503 223.5,181.5 Z"/></g>
<g><path style="opacity:1" fill="#fdd21f" d="M 355.5,410.5 C 352.087,441.079 335.087,458.246 304.5,462C 287.429,463.915 270.762,462.248 254.5,457C 235.123,447.253 224.957,431.42 224,409.5C 223.333,374.5 223.333,339.5 224,304.5C 227.775,307.3 231.608,309.966 235.5,312.5C 235.333,345.168 235.5,377.835 236,410.5C 237.427,423.19 242.927,433.69 252.5,442C 269.257,451.967 287.257,454.967 306.5,451C 328.82,446.015 341.32,432.181 344,409.5C 344.667,338.167 344.667,266.833 344,195.5C 338.167,191 332.333,186.5 326.5,182C 336.161,181.5 345.828,181.334 355.5,181.5C 355.5,257.833 355.5,334.167 355.5,410.5 Z"/></g>
<g><path style="opacity:1" fill="#fad122" d="M 360.5,181.5 C 370.506,181.334 380.506,181.5 390.5,182C 384.667,186.5 378.833,191 373,195.5C 372.667,268.5 372.333,341.5 372,414.5C 370.575,438.884 359.408,457.05 338.5,469C 317.937,477.128 296.604,480.128 274.5,478C 234.524,474.689 212.358,453.189 208,413.5C 207.5,373.835 207.333,334.168 207.5,294.5C 211.43,296.581 215.264,298.914 219,301.5C 219.333,339.833 219.667,378.167 220,416.5C 226.221,447.385 245.054,464.218 276.5,467C 299.219,470.428 320.219,466.095 339.5,454C 351.757,443.321 358.59,429.821 360,413.5C 360.5,336.167 360.667,258.834 360.5,181.5 Z"/></g>
<g><path style="opacity:1" fill="#cccee2" d="M 239.5,197.5 C 239.833,217.511 239.5,237.511 238.5,257.5C 237.893,257.376 237.56,257.043 237.5,256.5C 238.167,236.833 238.833,217.167 239.5,197.5 Z"/></g>
<g><path style="opacity:1" fill="#faf9f9" d="M 333.5,332.5 C 281.518,298.193 229.518,263.859 177.5,229.5C 161.662,228.173 145.662,228.173 129.5,229.5C 129.624,230.107 129.957,230.44 130.5,230.5C 135.149,233.474 139.816,236.474 144.5,239.5C 145.667,291.83 145.833,344.163 145,396.5C 139.443,401.691 133.61,406.524 127.5,411C 137.494,411.5 147.494,411.666 157.5,411.5C 159.167,411.5 160.833,411.5 162.5,411.5C 172.522,411.832 182.522,411.499 192.5,410.5C 192.376,409.893 192.043,409.56 191.5,409.5C 185.758,405.537 180.258,401.203 175,396.5C 174.333,350.833 174.333,305.167 175,259.5C 227.604,294.883 280.438,329.883 333.5,364.5C 333.822,368.439 332.489,369.272 329.5,367C 279.643,333.575 229.643,300.408 179.5,267.5C 179.44,266.957 179.107,266.624 178.5,266.5C 177.169,309.331 177.169,351.998 178.5,394.5C 184.478,399.636 190.645,404.636 197,409.5C 197.494,411.134 197.66,412.801 197.5,414.5C 170.831,414.667 144.165,414.5 117.5,414C 125.955,407.88 134.121,401.38 142,394.5C 142.667,343.833 142.667,293.167 142,242.5C 133.92,236.876 125.753,231.376 117.5,226C 137.833,225.333 158.167,225.333 178.5,226C 229.5,259.667 280.5,293.333 331.5,327C 333.155,328.444 333.822,330.278 333.5,332.5 Z"/></g>
<g><path style="opacity:1" fill="#ebe8e5" d="M 383.5,385.5 C 383.334,389.846 383.501,394.179 384,398.5C 390.167,402.667 396.333,406.833 402.5,411C 418.5,411.667 434.5,411.667 450.5,411C 445.262,406.797 439.762,402.964 434,399.5C 433.333,347.5 433.333,295.5 434,243.5C 440.167,238.667 446.333,233.833 452.5,229C 442.506,228.5 432.506,228.334 422.5,228.5C 422.832,284.669 422.499,340.669 421.5,396.5C 421.5,340.833 421.5,285.167 421.5,229.5C 420.167,229.5 418.833,229.5 417.5,229.5C 407.659,228.177 397.659,228.177 387.5,229.5C 387.624,230.107 387.957,230.44 388.5,230.5C 393.879,234.945 399.379,239.279 405,243.5C 405.667,289.167 405.667,334.833 405,380.5C 398,375.833 391,371.167 384,366.5C 383.501,370.821 383.334,375.154 383.5,379.5C 382.183,373.654 382.183,367.654 383.5,361.5C 389.196,365.695 395.029,369.695 401,373.5C 401.833,330.496 401.667,287.496 400.5,244.5C 394.575,239.953 388.742,235.287 383,230.5C 382.506,228.866 382.34,227.199 382.5,225.5C 409.169,225.333 435.835,225.5 462.5,226C 454.045,232.12 445.879,238.62 438,245.5C 437.333,296.167 437.333,346.833 438,397.5C 446.08,403.124 454.247,408.624 462.5,414C 441.833,414.667 421.167,414.667 400.5,414C 394.833,410.167 389.167,406.333 383.5,402.5C 382.184,396.68 382.184,391.013 383.5,385.5 Z"/></g>
<g><path style="opacity:1" fill="#ffea8f" d="M 177.5,229.5 C 161.658,229.17 145.991,229.504 130.5,230.5C 129.957,230.44 129.624,230.107 129.5,229.5C 145.662,228.173 161.662,228.173 177.5,229.5 Z"/></g>
<g><path style="opacity:1" fill="#e2c966" d="M 417.5,229.5 C 417.5,283.833 417.5,338.167 417.5,392.5C 412.305,392.821 407.305,392.487 402.5,391.5C 407.167,391.5 411.833,391.5 416.5,391.5C 416.5,337.5 416.5,283.5 416.5,229.5C 406.985,229.173 397.652,229.506 388.5,230.5C 387.957,230.44 387.624,230.107 387.5,229.5C 397.659,228.177 407.659,228.177 417.5,229.5 Z"/></g>
<g><path style="opacity:1" fill="#fdd327" d="M 130.5,230.5 C 145.991,229.504 161.658,229.17 177.5,229.5C 229.518,263.859 281.518,298.193 333.5,332.5C 333.826,336.884 333.492,341.217 332.5,345.5C 282.031,312.196 231.697,278.696 181.5,245C 173.946,243.568 166.279,243.068 158.5,243.5C 157.501,299.331 157.168,355.331 157.5,411.5C 147.494,411.666 137.494,411.5 127.5,411C 133.61,406.524 139.443,401.691 145,396.5C 145.833,344.163 145.667,291.83 144.5,239.5C 139.816,236.474 135.149,233.474 130.5,230.5 Z"/></g>
<g><path style="opacity:1" fill="#fed31d" d="M 388.5,230.5 C 397.652,229.506 406.985,229.173 416.5,229.5C 416.5,283.5 416.5,337.5 416.5,391.5C 411.833,391.5 407.167,391.5 402.5,391.5C 396.167,387.5 389.833,383.5 383.5,379.5C 383.334,375.154 383.501,370.821 384,366.5C 391,371.167 398,375.833 405,380.5C 405.667,334.833 405.667,289.167 405,243.5C 399.379,239.279 393.879,234.945 388.5,230.5 Z"/></g>
<g><path style="opacity:1" fill="#fed423" d="M 383.5,385.5 C 389.264,388.748 394.931,392.248 400.5,396C 407.492,396.5 414.492,396.666 421.5,396.5C 422.499,340.669 422.832,284.669 422.5,228.5C 432.506,228.334 442.506,228.5 452.5,229C 446.333,233.833 440.167,238.667 434,243.5C 433.333,295.5 433.333,347.5 434,399.5C 439.762,402.964 445.262,406.797 450.5,411C 434.5,411.667 418.5,411.667 402.5,411C 396.333,406.833 390.167,402.667 384,398.5C 383.501,394.179 383.334,389.846 383.5,385.5 Z"/></g>
<g><path style="opacity:1" fill="#696674" d="M 158.5,243.5 C 158.5,299.167 158.5,354.833 158.5,410.5C 159.833,410.5 161.167,410.5 162.5,410.5C 162.5,410.833 162.5,411.167 162.5,411.5C 160.833,411.5 159.167,411.5 157.5,411.5C 157.168,355.331 157.501,299.331 158.5,243.5 Z"/></g>
<g><path style="opacity:1" fill="#fdd323" d="M 333.5,364.5 C 280.438,329.883 227.604,294.883 175,259.5C 174.333,305.167 174.333,350.833 175,396.5C 180.258,401.203 185.758,405.537 191.5,409.5C 182.014,410.494 172.348,410.827 162.5,410.5C 162.5,356.167 162.5,301.833 162.5,247.5C 167.511,247.334 172.511,247.501 177.5,248C 229.167,282.333 280.833,316.667 332.5,351C 333.467,355.401 333.8,359.901 333.5,364.5 Z"/></g>
<g><path style="opacity:1" fill="#999fc6" d="M 179.5,267.5 C 178.501,309.663 178.168,351.997 178.5,394.5C 177.169,351.998 177.169,309.331 178.5,266.5C 179.107,266.624 179.44,266.957 179.5,267.5 Z"/></g>
<g><path style="opacity:0.966" fill="#fefffe" d="M 1652.5,384.5 C 1670.34,384.714 1687.67,387.714 1704.5,393.5C 1703.33,405.024 1701.33,416.358 1698.5,427.5C 1681.68,421.308 1664.35,419.142 1646.5,421C 1633.69,423.117 1629.19,430.284 1633,442.5C 1635.2,445.04 1637.7,447.207 1640.5,449C 1655.74,454.413 1670.74,460.413 1685.5,467C 1706.01,479.532 1713.84,497.698 1709,521.5C 1703.32,543.847 1689.15,557.347 1666.5,562C 1640.98,566.747 1616.65,563.247 1593.5,551.5C 1593.7,540.443 1595.03,529.443 1597.5,518.5C 1597.83,518.167 1598.17,517.833 1598.5,517.5C 1616.02,526.905 1634.69,530.738 1654.5,529C 1669.31,526.581 1674.48,518.414 1670,504.5C 1668.5,503 1667,501.5 1665.5,500C 1649.2,493.008 1632.87,486.008 1616.5,479C 1597.16,466.683 1589.66,449.183 1594,426.5C 1598.12,407.711 1609.29,395.211 1627.5,389C 1635.83,386.631 1644.16,385.131 1652.5,384.5 Z"/></g>
<g><path style="opacity:0.965" fill="#fefffe" d="M 705.5,387.5 C 718.413,387.178 731.246,387.511 744,388.5C 744.028,429.538 744.695,470.538 746,511.5C 748.679,520.177 754.512,525.343 763.5,527C 770.833,527.667 778.167,527.667 785.5,527C 795.222,524.945 801.389,519.112 804,509.5C 805.453,468.861 805.953,428.194 805.5,387.5C 818.413,387.178 831.246,387.511 844,388.5C 844.955,430.859 844.622,473.192 843,515.5C 839.556,537.946 827.056,552.779 805.5,560C 780.555,566.782 756.222,565.115 732.5,555C 714.379,543.271 705.212,526.438 705,504.5C 704.173,465.429 704.34,426.429 705.5,387.5 Z"/></g>
<g><path style="opacity:0.972" fill="#fefffe" d="M 877.5,387.5 C 888.505,387.333 899.505,387.5 910.5,388C 934.617,421.732 958.117,455.899 981,490.5C 981.333,456.5 981.667,422.5 982,388.5C 993.419,387.512 1004.92,387.179 1016.5,387.5C 1016.5,445.167 1016.5,502.833 1016.5,560.5C 1007.16,560.666 997.827,560.5 988.5,560C 962.945,524.778 937.778,489.278 913,453.5C 912.5,489.165 912.333,524.832 912.5,560.5C 900.833,560.5 889.167,560.5 877.5,560.5C 877.5,502.833 877.5,445.167 877.5,387.5 Z"/></g>
<g><path style="opacity:0.956" fill="#fefffe" d="M 1052.5,387.5 C 1065.75,387.177 1078.91,387.511 1092,388.5C 1092.5,445.832 1092.67,503.166 1092.5,560.5C 1078.83,560.5 1065.17,560.5 1051.5,560.5C 1051.17,502.762 1051.5,445.095 1052.5,387.5 Z"/></g>
<g><path style="opacity:0.966" fill="#fefffe" d="M 1112.5,387.5 C 1126.75,387.176 1140.91,387.51 1155,388.5C 1167.87,432.775 1180.54,477.108 1193,521.5C 1205.68,477.116 1218.51,432.783 1231.5,388.5C 1245.15,387.501 1258.82,387.167 1272.5,387.5C 1253.17,445.167 1233.83,502.833 1214.5,560.5C 1199.5,560.5 1184.5,560.5 1169.5,560.5C 1150.47,503.241 1131.14,446.074 1111.5,389C 1112.06,388.617 1112.39,388.117 1112.5,387.5 Z"/></g>
<g><path style="opacity:0.969" fill="#fefffe" d="M 1292.5,387.5 C 1330.17,387.167 1367.84,387.5 1405.5,388.5C 1406.48,400.116 1406.81,411.782 1406.5,423.5C 1381.5,423.5 1356.5,423.5 1331.5,423.5C 1331.5,434.5 1331.5,445.5 1331.5,456.5C 1352.5,456.5 1373.5,456.5 1394.5,456.5C 1394.5,466.833 1394.5,477.167 1394.5,487.5C 1373.5,487.5 1352.5,487.5 1331.5,487.5C 1331.5,500.5 1331.5,513.5 1331.5,526.5C 1357.83,526.5 1384.17,526.5 1410.5,526.5C 1409.91,537.824 1409.58,549.157 1409.5,560.5C 1370.17,560.5 1330.83,560.5 1291.5,560.5C 1291.17,502.762 1291.5,445.095 1292.5,387.5 Z"/></g>
<g><path style="opacity:0.976" fill="#fefffe" d="M 1439.5,387.5 C 1462.17,387.333 1484.84,387.5 1507.5,388C 1524.15,387.663 1539.15,392.33 1552.5,402C 1562.7,413.092 1567.7,426.259 1567.5,441.5C 1567.74,457.302 1562.4,470.802 1551.5,482C 1547.61,485.111 1543.28,487.444 1538.5,489C 1551.83,512.667 1565.17,536.333 1578.5,560C 1563.17,560.667 1547.83,560.667 1532.5,560C 1522.54,539.243 1512.7,518.409 1503,497.5C 1494.92,496.518 1486.75,496.184 1478.5,496.5C 1478.5,517.833 1478.5,539.167 1478.5,560.5C 1465.5,560.5 1452.5,560.5 1439.5,560.5C 1439.5,502.833 1439.5,445.167 1439.5,387.5 Z M 1478.5,421.5 C 1491.24,421.059 1503.91,421.559 1516.5,423C 1523.92,427.753 1526.92,434.586 1525.5,443.5C 1526.02,449.535 1524.85,455.202 1522,460.5C 1520.27,462.617 1518.1,464.117 1515.5,465C 1503.23,466.418 1490.89,466.918 1478.5,466.5C 1478.5,451.5 1478.5,436.5 1478.5,421.5 Z"/></g>
<g><path style="opacity:0.979" fill="#fefffe" d="M 1738.5,387.5 C 1751.83,387.5 1765.17,387.5 1778.5,387.5C 1778.5,445.167 1778.5,502.833 1778.5,560.5C 1765.17,560.5 1751.83,560.5 1738.5,560.5C 1738.5,502.833 1738.5,445.167 1738.5,387.5 Z"/></g>
<g><path style="opacity:0.968" fill="#fefffe" d="M 1802.5,387.5 C 1845.83,387.5 1889.17,387.5 1932.5,387.5C 1933.28,399.484 1933.61,411.484 1933.5,423.5C 1918.17,423.5 1902.83,423.5 1887.5,423.5C 1887.5,469.167 1887.5,514.833 1887.5,560.5C 1874.17,560.5 1860.83,560.5 1847.5,560.5C 1847.5,514.833 1847.5,469.167 1847.5,423.5C 1832.17,423.5 1816.83,423.5 1801.5,423.5C 1801.46,411.487 1801.79,399.487 1802.5,387.5 Z"/></g>
<g><path style="opacity:0.964" fill="#fefffe" d="M 1943.5,387.5 C 1958.41,387.176 1973.24,387.509 1988,388.5C 1999.74,415.648 2011.74,442.648 2024,469.5C 2035.06,442.385 2046.39,415.385 2058,388.5C 2072.44,387.177 2086.94,387.177 2101.5,388.5C 2082.33,426.833 2063.17,465.167 2044,503.5C 2043.5,522.497 2043.33,541.497 2043.5,560.5C 2029.83,560.5 2016.17,560.5 2002.5,560.5C 2002.67,541.83 2002.5,523.164 2002,504.5C 1981.96,465.757 1962.46,426.757 1943.5,387.5 Z"/></g>
<g><path style="opacity:1" fill="#ffea8e" d="M 191.5,409.5 C 192.043,409.56 192.376,409.893 192.5,410.5C 182.522,411.499 172.522,411.832 162.5,411.5C 162.5,411.167 162.5,410.833 162.5,410.5C 172.348,410.827 182.014,410.494 191.5,409.5 Z"/></g>
<g><path style="opacity:1" fill="#fdfdfd" d="M 218.5,508.5 C 220.167,508.5 221.833,508.5 223.5,508.5C 223.173,518.681 223.506,528.681 224.5,538.5C 226.265,539.461 228.265,539.795 230.5,539.5C 230.5,540.833 230.5,542.167 230.5,543.5C 223.5,543.5 216.5,543.5 209.5,543.5C 209.5,542.167 209.5,540.833 209.5,539.5C 211.735,539.795 213.735,539.461 215.5,538.5C 216.819,531.323 216.819,523.99 215.5,516.5C 214.893,516.624 214.56,516.957 214.5,517.5C 212.534,518.441 210.534,519.441 208.5,520.5C 207.359,518.579 207.192,516.579 208,514.5C 211.283,512.109 214.783,510.109 218.5,508.5 Z"/></g>
<g><path style="opacity:1" fill="#989ec6" d="M 218.5,508.5 C 220.265,507.539 222.265,507.205 224.5,507.5C 224.5,517.833 224.5,528.167 224.5,538.5C 223.506,528.681 223.173,518.681 223.5,508.5C 221.833,508.5 220.167,508.5 218.5,508.5 Z"/></g>
<g><path style="opacity:1" fill="#f5f5f9" d="M 255.5,507.5 C 273.478,506.32 280.644,514.653 277,532.5C 275.938,538.562 272.438,542.395 266.5,544C 260.796,544.687 255.13,544.521 249.5,543.5C 249.5,541.5 249.5,539.5 249.5,537.5C 254.463,538.496 259.463,538.663 264.5,538C 267.638,536.029 269.305,533.196 269.5,529.5C 264.871,530.481 260.204,530.648 255.5,530C 247.466,527.095 244.966,521.595 248,513.5C 250.114,510.879 252.614,508.879 255.5,507.5 Z"/></g>
<g><path style="opacity:1" fill="#f8f8fb" d="M 303.5,507.5 C 321.938,506.459 329.105,515.125 325,533.5C 324.169,538.681 321.336,542.181 316.5,544C 311.079,544.839 305.746,544.506 300.5,543C 297.894,541.062 296.061,538.562 295,535.5C 294.333,529.167 294.333,522.833 295,516.5C 296.688,512.315 299.521,509.315 303.5,507.5 Z"/></g>
<g><path style="opacity:1" fill="#f6f6fa" d="M 351.5,507.5 C 368.946,506.118 376.113,514.118 373,531.5C 372.658,536.388 370.491,540.221 366.5,543C 359.649,545.316 352.983,544.983 346.5,542C 344.959,540.421 343.792,538.587 343,536.5C 340.765,528.7 341.098,521.033 344,513.5C 346.114,510.879 348.614,508.879 351.5,507.5 Z"/></g>
<g><path style="opacity:1" fill="#3b4591" d="M 257.5,513.5 C 260.978,513.184 264.312,513.684 267.5,515C 269.524,517.64 269.857,520.473 268.5,523.5C 264.5,524.833 260.5,524.833 256.5,523.5C 253.696,519.852 254.03,516.518 257.5,513.5 Z"/></g>
<g><path style="opacity:1" fill="#3b4591" d="M 306.5,513.5 C 311.439,512.352 314.939,514.019 317,518.5C 317.667,523.833 317.667,529.167 317,534.5C 314.089,538.277 310.256,539.444 305.5,538C 300.727,530.88 300.227,523.38 304,515.5C 304.995,514.934 305.828,514.267 306.5,513.5 Z"/></g>
<g><path style="opacity:1" fill="#3c4591" d="M 353.5,513.5 C 359.192,512.26 363.026,514.26 365,519.5C 365.667,523.833 365.667,528.167 365,532.5C 363.171,538.158 359.337,539.992 353.5,538C 351.462,536.764 350.295,534.931 350,532.5C 349.333,527.833 349.333,523.167 350,518.5C 350.997,516.677 352.164,515.01 353.5,513.5 Z"/></g>
<g><path style="opacity:1" fill="#989ec6" d="M 214.5,517.5 C 214.56,516.957 214.893,516.624 215.5,516.5C 216.819,523.99 216.819,531.323 215.5,538.5C 215.825,531.313 215.491,524.313 214.5,517.5 Z"/></g>
<g><path style="opacity:1" fill="#9096c1" d="M 215.5,538.5 C 213.735,539.461 211.735,539.795 209.5,539.5C 209.5,540.833 209.5,542.167 209.5,543.5C 216.5,543.5 223.5,543.5 230.5,543.5C 230.5,542.167 230.5,540.833 230.5,539.5C 228.265,539.795 226.265,539.461 224.5,538.5C 226.833,538.5 229.167,538.5 231.5,538.5C 231.5,540.5 231.5,542.5 231.5,544.5C 223.833,544.5 216.167,544.5 208.5,544.5C 208.5,542.5 208.5,540.5 208.5,538.5C 210.833,538.5 213.167,538.5 215.5,538.5 Z"/></g>
</svg>
